# xmcd CD database file
#
# Track frame offsets:
#	150
#	20619
#	38642
#	77142
#	108920
#	146575
#	171582
#	183905
#	211462
#	234917
#
# Disc length: 3488 seconds
#
# Revision: 0
# Processed by: cddbd v1.5.1PL2 Copyright (c) Steve Scherf et al.
# Submitted via: CDex 1.51
#
DISCID=810d9e0a
DTITLE=Sandy Patton - Tribute
DYEAR=1995
DGENRE=Jazz
TTITLE0=Night Life
TTITLE1=The Midnight Sun
TTITLE2=I'm Old Fashioned
TTITLE3=Dindi
TTITLE4=Bolivia
TTITLE5=You Must Believe in Spring
TTITLE6=My Shining Hour
TTITLE7=For the Time Being
TTITLE8='Round Midnight
TTITLE9=Sack Full Of Dreams
EXTD=YEAR: 1995
EXTT0=
EXTT1=
EXTT2=
EXTT3=
EXTT4=
EXTT5=
EXTT6=
EXTT7=
EXTT8=
EXTT9=
PLAYORDER=
